<?xml version="1.0" encoding="iso-8859-1"?>
<!-- Generator: Adobe Illustrator 19.0.0, SVG Export Plug-In . SVG Version: 6.00 Build 0)  -->
<svg version="1.1" id="Layer_1" xmlns="http://www.w3.org/2000/svg" xmlns:xlink="http://www.w3.org/1999/xlink" x="0px" y="0px"
	 viewBox="0 0 512 512" style="enable-background:new 0 0 512 512;" xml:space="preserve">
<g>
	<g>
		<path d="M472.253,243.036h-69.838H244.322H39.747C17.83,243.036,0,260.866,0,282.784c0,17.439,11.294,32.28,26.947,37.621v28.4
			c0,43.176,20.313,81.699,51.884,106.511l-17.004,17.004c-5.261,5.261-5.263,13.793,0,19.056c2.631,2.63,6.079,3.946,9.527,3.946
			s6.897-1.316,9.527-3.946l21.294-21.294c18.141,9.04,38.577,14.134,60.183,14.134h187.284c21.606,0,42.042-5.094,60.183-14.134
			l21.294,21.294c2.631,2.63,6.079,3.946,9.527,3.946c3.448,0,6.897-1.316,9.527-3.946c5.261-5.261,5.261-13.793,0-19.056
			l-17.004-17.004c31.569-24.812,51.882-63.334,51.882-106.511v-28.4C500.706,315.063,512,300.223,512,282.784
			C512,260.866,494.169,243.036,472.253,243.036z M257.797,309.057v-39.074h131.143v39.074v47.718
			c0,12.322-10.023,22.345-22.343,22.345h-86.457c-12.32,0-22.343-10.023-22.343-22.345V309.057z M39.747,295.584
			c-7.057,0-12.8-5.742-12.8-12.8c0-7.058,5.742-12.8,12.8-12.8h191.101v25.6H40.421H39.747z M458.105,348.805
			c0,59.807-48.656,108.463-108.463,108.463H162.358c-59.807,0-108.463-48.656-108.463-108.463v-26.274h176.954v34.245
			c0,27.18,22.112,49.292,49.291,49.292h86.457c27.179,0,49.291-22.112,49.291-49.292v-34.245h42.218V348.805z M472.253,295.584
			h-0.674h-55.691v-25.6h56.364c7.058,0,12.8,5.742,12.8,12.8C485.053,289.841,479.31,295.584,472.253,295.584z"/>
	</g>
</g>
<g>
	<g>
		<path d="M232.024,75.848c-5.825-33.562-35.138-59.17-70.339-59.17h-5.389c-39.375,0-71.411,32.034-71.411,71.411v81.284
			c0,7.44,6.032,13.474,13.474,13.474s13.474-6.034,13.474-13.474V88.089c0-24.517,19.946-44.463,44.463-44.463h5.389
			c20.487,0,37.773,13.932,42.906,32.816c-27.482,6.758-47.933,31.597-47.933,61.135v15.185c0,7.44,6.032,13.474,13.474,13.474
			h98.98c7.441,0,13.474-6.034,13.474-13.474v-15.185C282.585,107.104,260.822,81.624,232.024,75.848z M255.638,139.289h-72.033
			v-1.711c0-19.859,16.158-36.015,36.016-36.015c19.859,0,36.017,16.156,36.017,36.015V139.289z"/>
	</g>
</g>
<g>
	<g>
		<path d="M107.884,201.621c-0.62-0.62-1.307-1.186-2.048-1.671c-0.728-0.484-1.509-0.903-2.318-1.24
			c-0.822-0.337-1.671-0.591-2.533-0.767c-1.725-0.352-3.517-0.352-5.255,0c-0.862,0.175-1.711,0.43-2.52,0.767
			c-0.822,0.337-1.603,0.756-2.331,1.24c-0.741,0.485-1.428,1.051-2.048,1.671c-0.62,0.62-1.186,1.307-1.671,2.049
			c-0.485,0.726-0.903,1.508-1.24,2.33c-0.337,0.808-0.606,1.657-0.768,2.52c-0.175,0.862-0.269,1.752-0.269,2.627
			c0,0.874,0.094,1.765,0.269,2.641c0.162,0.848,0.431,1.696,0.768,2.518c0.337,0.808,0.755,1.59,1.24,2.318
			c0.485,0.741,1.051,1.428,1.671,2.048c0.62,0.62,1.307,1.187,2.048,1.684c0.728,0.485,1.509,0.903,2.331,1.24
			c0.808,0.337,1.657,0.593,2.52,0.768c0.862,0.175,1.752,0.256,2.627,0.256s1.765-0.082,2.627-0.256
			c0.862-0.175,1.711-0.431,2.533-0.768c0.808-0.337,1.59-0.755,2.318-1.24c0.741-0.497,1.428-1.064,2.048-1.684
			c2.506-2.505,3.948-5.981,3.948-9.525S110.39,204.127,107.884,201.621z"/>
	</g>
</g>
<g>
</g>
<g>
</g>
<g>
</g>
<g>
</g>
<g>
</g>
<g>
</g>
<g>
</g>
<g>
</g>
<g>
</g>
<g>
</g>
<g>
</g>
<g>
</g>
<g>
</g>
<g>
</g>
<g>
</g>
</svg>
